<svg width="24" height="24" viewBox="0 0 24 24" fill="none" xmlns="http://www.w3.org/2000/svg">
<path d="M11.9668 20.2725H4.49168C4.0332 20.2725 3.66113 19.9004 3.66113 19.4419V4.49172C3.66113 4.03324 4.03324 3.66117 4.49168 3.66117H11.9668C12.4261 3.66117 12.7973 3.28992 12.7973 2.83062C12.7973 2.37133 12.4261 2 11.9668 2H4.49168C3.11793 2 2 3.11797 2 4.49172V19.4419C2 20.8156 3.11793 21.9336 4.49168 21.9336H11.9668C12.4261 21.9336 12.7973 21.5623 12.7973 21.103C12.7973 20.6437 12.4261 20.2725 11.9668 20.2725Z" fill="#F6BA58"/>
<path d="M21.7525 11.3753L16.7027 6.39195C16.3771 6.06968 15.8505 6.07386 15.5282 6.40027C15.206 6.72667 15.2093 7.25241 15.5366 7.57468L19.1454 11.1361H9.47508C9.01578 11.1361 8.64453 11.5074 8.64453 11.9667C8.64453 12.426 9.01578 12.7973 9.47508 12.7973H19.1454L15.5366 16.3587C15.2093 16.681 15.2068 17.2067 15.5282 17.5331C15.691 17.6976 15.9053 17.7806 16.1196 17.7806C16.3306 17.7806 16.5415 17.7009 16.7027 17.5414L21.7525 12.558C21.9103 12.4019 22 12.1892 22 11.9666C22 11.7441 21.9111 11.5323 21.7525 11.3753Z" fill="#F6BA58"/>
</svg>
