<svg width="24" height="24" viewBox="0 0 24 24" fill="none" xmlns="http://www.w3.org/2000/svg">
<path d="M12.8333 7.00003C12.8333 7.46024 12.4602 7.83331 12 7.83331C11.5398 7.83331 11.1667 7.46024 11.1667 7.00003C11.1667 6.53983 11.5398 6.16675 12 6.16675C12.4602 6.16675 12.8333 6.53983 12.8333 7.00003Z" fill="#8169F3"/>
<path d="M12 17.8333C11.655 17.8333 11.375 17.5533 11.375 17.2083V10.75H10.5417C10.1967 10.75 9.91675 10.47 9.91675 10.125C9.91675 9.78 10.1967 9.5 10.5417 9.5H12C12.345 9.5 12.625 9.78 12.625 10.125V17.2083C12.625 17.5533 12.345 17.8333 12 17.8333Z" fill="#8169F3"/>
<path d="M12 22C6.48578 22 2 17.5142 2 12C2 6.48578 6.48578 2 12 2C17.5142 2 22 6.48578 22 12C22 17.5142 17.5142 22 12 22ZM12 3.25C7.17502 3.25 3.25 7.17502 3.25 12C3.25 16.825 7.17502 20.75 12 20.75C16.825 20.75 20.75 16.825 20.75 12C20.75 7.17502 16.825 3.25 12 3.25Z" fill="#8169F3"/>
<path d="M13.875 17.8333H10.125C9.78 17.8333 9.5 17.5533 9.5 17.2083C9.5 16.8633 9.78 16.5833 10.125 16.5833H13.875C14.22 16.5833 14.5 16.8633 14.5 17.2083C14.5 17.5533 14.22 17.8333 13.875 17.8333Z" fill="#8169F3"/>
</svg>
