<svg width="24" height="24" viewBox="0 0 24 24" fill="none" xmlns="http://www.w3.org/2000/svg">
<path fill-rule="evenodd" clip-rule="evenodd" d="M5.11333 5.95846H2.83333C2.3731 5.95846 2 5.58538 2 5.12515C2 4.66492 2.3731 4.29183 2.83333 4.29183H5.11333C5.48103 2.93897 6.70928 2 8.11125 2C9.51322 2 10.7415 2.93897 11.1092 4.29183H21.1667C21.6269 4.29183 22 4.66492 22 5.12515C22 5.58538 21.6269 5.95846 21.1667 5.95846H11.1092C10.7415 7.31133 9.51322 8.2503 8.11125 8.2503C6.70928 8.2503 5.48103 7.31133 5.11333 5.95846ZM9.56917 5.12515C9.56917 4.31975 8.91625 3.66685 8.11083 3.66685C7.3058 3.66776 6.65342 4.32013 6.6525 5.12515C6.6525 5.93055 7.30542 6.58345 8.11083 6.58345C8.91625 6.58345 9.56917 5.93055 9.56917 5.12515ZM18.8867 11.1667H21.1667C21.6269 11.1667 22 11.5398 22 12C22 12.4602 21.6269 12.8333 21.1667 12.8333H18.8867C18.5196 14.1865 17.2913 15.126 15.8892 15.126C14.487 15.126 13.2588 14.1865 12.8917 12.8333H2.83333C2.3731 12.8333 2 12.4602 2 12C2 11.5398 2.3731 11.1667 2.83333 11.1667H12.8917C13.2588 9.81348 14.487 8.87404 15.8892 8.87404C17.2913 8.87404 18.5196 9.81348 18.8867 11.1667ZM14.4308 12C14.4308 12.8054 15.0838 13.4583 15.8892 13.4583C16.6942 13.4574 17.3466 12.805 17.3475 12C17.3475 11.1946 16.6946 10.5417 15.8892 10.5417C15.0838 10.5417 14.4308 11.1946 14.4308 12ZM21.1667 18.0415H11.1092C10.7415 16.6887 9.51322 15.7497 8.11125 15.7497C6.70928 15.7497 5.48103 16.6887 5.11333 18.0415H2.83333C2.3731 18.0415 2 18.4146 2 18.8749C2 19.3351 2.3731 19.7082 2.83333 19.7082H5.11333C5.48103 21.061 6.70928 22 8.11125 22C9.51322 22 10.7415 21.061 11.1092 19.7082H21.1667C21.6269 19.7082 22 19.3351 22 18.8749C22 18.4146 21.6269 18.0415 21.1667 18.0415ZM8.11083 20.3332C7.30542 20.3332 6.6525 19.6803 6.6525 18.8749C6.6525 18.0695 7.30542 17.4165 8.11083 17.4165C8.91625 17.4165 9.56917 18.0695 9.56917 18.8749C9.56779 19.6797 8.91568 20.3318 8.11083 20.3332Z" fill="#131314"/>
</svg>
