<svg width="24" height="22" viewBox="0 0 24 22" fill="none" xmlns="http://www.w3.org/2000/svg">
<path fill-rule="evenodd" clip-rule="evenodd" d="M17.4445 0.507446C14.7073 0.507446 12.8977 2.00201 12 2.99085C11.1024 2.0021 9.29274 0.507446 6.55558 0.507446C2.82079 0.507446 0.333374 3.98051 0.333374 7.87112C0.333374 10.7822 1.80132 16.4535 11.6323 21.7282C11.8619 21.8514 12.1381 21.8515 12.3678 21.7282C22.1988 16.4535 23.6667 10.7822 23.6667 7.87112C23.6667 3.89023 21.1056 0.507446 17.4445 0.507446ZM12 20.1578C7.27782 17.5614 1.88891 13.2353 1.88891 7.87112C1.88891 4.88714 3.68079 2.06303 6.55558 2.06303C8.73656 2.06303 10.541 3.40032 11.3395 4.65946C11.6439 5.14905 12.3587 5.14854 12.6619 4.65736C12.6779 4.63143 14.2997 2.06298 17.4445 2.06298C20.3407 2.06298 22.1112 4.91544 22.1112 7.87107C22.1112 13.2354 16.7224 17.5613 12 20.1578Z" fill="#79797C"/>
</svg>
