<svg width="24" height="25" viewBox="0 0 24 25" fill="none" xmlns="http://www.w3.org/2000/svg">
<path d="M8.02738 15.9724L6.44212 10.0561M8.02738 15.9724L5.43902 16.6659M8.02738 15.9724L9.58349 16.1428M6.44212 10.0561L2.29691 11.1668C1.72722 11.3195 1.38914 11.905 1.54179 12.4747L2.57426 16.328C2.72691 16.8976 3.31248 17.2357 3.88216 17.0831L5.43902 16.6659M6.44212 10.0561L14.1843 3.12954C15.218 2.20472 16.4614 1.54562 17.807 1.20924V1.20924C17.9457 1.17458 18.0871 1.25533 18.1276 1.39239L22.5594 16.3639C22.6088 16.531 22.5141 16.7066 22.3473 16.7569V16.7569C21.0308 17.1544 19.6472 17.2798 18.2807 17.1254L9.58349 16.1428M5.43902 16.6659L8.16272 22.9208C8.37376 23.4055 8.90761 23.6628 9.4182 23.526L11.0669 23.0842C11.6846 22.9187 12.0193 22.2511 11.7825 21.6571L9.58349 16.1428" stroke="#79797C" stroke-width="1.4" stroke-linecap="round" stroke-linejoin="round"/>
</svg>
