<svg width="24" height="24" viewBox="0 0 24 24" fill="none" xmlns="http://www.w3.org/2000/svg">
<path fill-rule="evenodd" clip-rule="evenodd" d="M21.7663 20.5889L16.7962 15.6188C19.6091 12.1785 19.2303 7.13673 15.9349 4.15535C12.6394 1.17397 7.58503 1.30034 4.44269 4.44269C1.30034 7.58503 1.17397 12.6394 4.15535 15.9349C7.13673 19.2303 12.1785 19.6091 15.6188 16.7962L20.5889 21.7663C20.9156 22.0818 21.4349 22.0773 21.7561 21.7561C22.0773 21.4349 22.0818 20.9156 21.7663 20.5889ZM10.3532 17.0143C6.67428 17.0143 3.69196 14.032 3.69196 10.3532C3.69196 6.67428 6.67428 3.69196 10.3532 3.69196C14.032 3.69196 17.0143 6.67428 17.0143 10.3532C17.0102 14.0303 14.0303 17.0102 10.3532 17.0143Z" fill="#79797C"/>
</svg>
