<svg width="20" height="20" viewBox="0 0 20 20" fill="none" xmlns="http://www.w3.org/2000/svg">
<path d="M10.7812 5.39062V9.67641L13.6254 12.5205C13.9305 12.8256 13.9305 13.3203 13.6254 13.6254C13.3202 13.9305 12.8256 13.9304 12.5205 13.6254L9.44758 10.5524C9.30105 10.4059 9.21875 10.2072 9.21875 10V5.39062C9.21875 4.95914 9.56852 4.60938 10 4.60938C10.4315 4.60938 10.7812 4.95914 10.7812 5.39062ZM13.0729 0H6.92707C5.29074 0 3.67641 0.575078 2.38473 1.69836V0.78125C2.38473 0.349766 2.03496 0 1.60348 0C1.17199 0 0.822227 0.349766 0.822227 0.78125V3.85418C0.822227 4.28566 1.175 4.63543 1.60348 4.63543H4.67641C5.10789 4.63543 5.45766 4.28566 5.45766 3.85418C5.45766 3.4227 5.10789 3.07293 4.67641 3.07293H3.19855C4.18738 2.11961 5.52219 1.5625 6.92707 1.5625H13.0729C16.031 1.5625 18.4375 3.96902 18.4375 6.92707V13.0729C18.4375 16.031 16.031 18.4375 13.0729 18.4375H6.92707C3.96902 18.4375 1.5625 16.031 1.5625 13.0729V10C1.5625 9.56852 1.21273 9.21875 0.78125 9.21875C0.349766 9.21875 0 9.56852 0 10V13.0729C0 16.8925 3.10746 20 6.92707 20H13.0729C16.8925 20 20 16.8925 20 13.0729V6.92707C20 3.10746 16.8925 0 13.0729 0V0Z" fill="#EF7950"/>
</svg>
