<svg width="10" height="10" viewBox="0 0 10 10" fill="none" xmlns="http://www.w3.org/2000/svg">
<path fill-rule="evenodd" clip-rule="evenodd" d="M9.92979 3.70363C9.75476 3.12817 9.23559 2.73896 8.65166 2.74544H6.83095L6.27794 0.965082C6.09951 0.390079 5.58189 0 4.99732 0C4.41275 0 3.89513 0.390079 3.7167 0.965082L3.16369 2.74544H1.34298C0.761469 2.74629 0.246367 3.13312 0.0662368 3.70422C-0.113894 4.27533 0.0817576 4.90133 0.551181 5.25584L2.03309 6.37502L1.46966 8.17733C1.28267 8.7514 1.48342 9.38414 1.96308 9.73255C2.43452 10.0922 3.07873 10.0888 3.54667 9.72438L4.99732 8.62155L6.44839 9.72308C6.91851 10.0803 7.558 10.0835 8.03146 9.73105C8.50493 9.37862 8.70429 8.75098 8.52498 8.17733L7.96155 6.37502L9.44512 5.25584C9.92038 4.90544 10.1173 4.27481 9.92979 3.70363ZM8.95338 4.56066L7.22643 5.8645C7.08093 5.97414 7.02008 6.16791 7.07557 6.34489L7.73193 8.44119C7.80007 8.65933 7.72422 8.89797 7.54416 9.03194C7.3641 9.16591 7.12094 9.16462 6.94222 9.02876L5.24403 7.7374C5.09723 7.62602 4.89741 7.62602 4.75061 7.7374L3.05242 9.02876C2.87376 9.16649 2.6293 9.16878 2.44825 9.03442C2.2672 8.90007 2.19128 8.66004 2.26063 8.44119L2.91907 6.34489C2.97456 6.16791 2.91371 5.97414 2.76821 5.8645L1.04126 4.56066C0.862859 4.42573 0.788626 4.18765 0.857266 3.97055C0.925905 3.75344 1.12187 3.6065 1.34298 3.60634H3.46832C3.64934 3.60634 3.80966 3.48562 3.86505 3.30761L4.51099 1.22809C4.57902 1.00976 4.77569 0.861732 4.99774 0.861732C5.21978 0.861732 5.41645 1.00976 5.48448 1.22809L6.13042 3.30761C6.18581 3.48562 6.34613 3.60634 6.52715 3.60634H8.6525C8.8736 3.6065 9.06957 3.75344 9.13821 3.97055C9.20685 4.18765 9.13261 4.42573 8.95421 4.56066H8.95338Z" fill="#8169F3"/>
</svg>
