<svg width="28" height="28" viewBox="0 0 28 28" fill="none" xmlns="http://www.w3.org/2000/svg">
<path d="M11.8575 11.6341C13.181 11.6341 14.327 11.1594 15.2635 10.2228C16.1998 9.28638 16.6747 8.14059 16.6747 6.81689C16.6747 5.49365 16.2 4.34772 15.2634 3.41098C14.3268 2.4747 13.1809 2 11.8575 2C10.5338 2 9.388 2.4747 8.45157 3.41113C7.51514 4.34756 7.04028 5.4935 7.04028 6.81689C7.04028 8.14059 7.51514 9.28653 8.45157 10.223C9.38831 11.1592 10.5342 11.6341 11.8575 11.6341ZM9.28043 4.23984C9.99896 3.5213 10.8419 3.17203 11.8575 3.17203C12.873 3.17203 13.716 3.5213 14.4347 4.23984C15.1532 4.95853 15.5027 5.80157 15.5027 6.81689C15.5027 7.83252 15.1532 8.67542 14.4347 9.3941C13.716 10.1128 12.873 10.4621 11.8575 10.4621C10.8422 10.4621 9.99927 10.1126 9.28043 9.3941C8.56174 8.67557 8.21231 7.83252 8.21231 6.81689C8.21231 5.80157 8.56174 4.95853 9.28043 4.23984Z" fill="#79797C"/>
<path d="M20.2863 17.379C20.2593 16.9893 20.2047 16.5642 20.1242 16.1153C20.0431 15.663 19.9385 15.2354 19.8134 14.8447C19.684 14.4408 19.5084 14.0419 19.291 13.6597C19.0656 13.2629 18.8007 12.9175 18.5034 12.6332C18.1926 12.3358 17.8121 12.0967 17.372 11.9223C16.9335 11.7488 16.4475 11.6609 15.9276 11.6609C15.7234 11.6609 15.526 11.7447 15.1447 11.993C14.91 12.146 14.6355 12.323 14.3291 12.5188C14.0671 12.6857 13.7122 12.8421 13.2738 12.9837C12.8461 13.1221 12.4118 13.1923 11.9831 13.1923C11.5546 13.1923 11.1203 13.1221 10.6923 12.9837C10.2544 12.8423 9.89932 12.6859 9.63779 12.5189C9.33429 12.325 9.05963 12.148 8.82144 11.9928C8.44043 11.7445 8.24298 11.6608 8.03882 11.6608C7.5188 11.6608 7.03296 11.7488 6.59457 11.9225C6.15482 12.0966 5.77411 12.3357 5.46298 12.6334C5.16574 12.9178 4.90085 13.2631 4.67563 13.6597C4.4585 14.0419 4.28271 14.4406 4.15332 14.8448C4.02835 15.2356 3.92383 15.663 3.84265 16.1153C3.76208 16.5636 3.70761 16.9888 3.6806 17.3795C3.65405 17.7614 3.64062 18.1589 3.64062 18.5605C3.64062 19.6045 3.9725 20.4497 4.62695 21.073C5.27332 21.6881 6.12842 22 7.16861 22H16.7987C17.8386 22 18.6937 21.6881 19.3402 21.073C19.9948 20.4501 20.3267 19.6046 20.3267 18.5603C20.3266 18.1573 20.313 17.7599 20.2863 17.379ZM18.5321 20.2238C18.105 20.6303 17.538 20.8279 16.7986 20.8279H7.16861C6.42902 20.8279 5.862 20.6303 5.43506 20.224C5.0162 19.8253 4.81265 19.281 4.81265 18.5605C4.81265 18.1857 4.82501 17.8157 4.84973 17.4605C4.87384 17.112 4.92313 16.7291 4.99622 16.3223C5.06839 15.9206 5.16025 15.5435 5.2695 15.2022C5.37433 14.8749 5.5173 14.5508 5.69461 14.2386C5.86383 13.941 6.05853 13.6858 6.27338 13.4801C6.47433 13.2877 6.72763 13.1302 7.02609 13.0121C7.30212 12.9028 7.61234 12.843 7.9491 12.834C7.99014 12.8558 8.06323 12.8975 8.18164 12.9747C8.42258 13.1317 8.70029 13.3109 9.00729 13.5069C9.35336 13.7276 9.79922 13.9268 10.3319 14.0988C10.8765 14.2749 11.4319 14.3643 11.9832 14.3643C12.5345 14.3643 13.0901 14.2749 13.6344 14.099C14.1675 13.9267 14.6132 13.7276 14.9597 13.5066C15.2739 13.3058 15.5439 13.1319 15.7848 12.9747C15.9032 12.8976 15.9763 12.8558 16.0173 12.834C16.3542 12.843 16.6645 12.9028 16.9406 13.0121C17.239 13.1302 17.4922 13.2878 17.6932 13.4801C17.9081 13.6856 18.1028 13.9409 18.272 14.2387C18.4494 14.5508 18.5926 14.875 18.6972 15.202C18.8066 15.5438 18.8987 15.9207 18.9707 16.3222C19.0436 16.7297 19.093 17.1127 19.1172 17.4606V17.4609C19.142 17.8148 19.1545 18.1847 19.1547 18.5605C19.1545 19.2812 18.951 19.8253 18.5321 20.2238Z" fill="#79797C"/>
</svg>
