<svg width="20" height="20" viewBox="0 0 20 20" fill="none" xmlns="http://www.w3.org/2000/svg">
<path d="M10.8333 15C10.8333 15.4602 10.4602 15.8333 10 15.8333C9.53983 15.8333 9.16675 15.4602 9.16675 15C9.16675 14.5398 9.53983 14.1667 10 14.1667C10.4602 14.1667 10.8333 14.5398 10.8333 15Z" fill="#EF7950"/>
<path d="M10 20C4.48578 20 0 15.5142 0 10C0 4.48578 4.48578 0 10 0C15.5142 0 20 4.48578 20 10C20 15.5142 15.5142 20 10 20ZM10 1.25C5.17502 1.25 1.25 5.17502 1.25 10C1.25 14.825 5.17502 18.75 10 18.75C14.825 18.75 18.75 14.825 18.75 10C18.75 5.17502 14.825 1.25 10 1.25Z" fill="#EF7950"/>
<path d="M9.99997 12.2917C9.65497 12.2917 9.37497 12.0117 9.37497 11.6667V10.825C9.37497 10.0317 9.87836 9.3208 10.6266 9.05667C11.6224 8.70587 12.2917 7.64493 12.2917 6.87497C12.2917 5.61078 11.2642 4.58325 9.99997 4.58325C8.73578 4.58325 7.70825 5.61078 7.70825 6.87497C7.70825 7.21997 7.42825 7.49997 7.08325 7.49997C6.73825 7.49997 6.45825 7.21997 6.45825 6.87497C6.45825 4.92245 8.04669 3.33325 9.99997 3.33325C11.9532 3.33325 13.5417 4.92245 13.5417 6.87497C13.5417 8.26505 12.4441 9.74088 11.0424 10.2359C10.7925 10.3233 10.625 10.5607 10.625 10.8258V11.6667C10.625 12.0117 10.345 12.2917 9.99997 12.2917Z" fill="#EF7950"/>
</svg>
